<?xml version="1.0" encoding="utf-8"?>
<!-- Generator: Adobe Illustrator 26.0.1, SVG Export Plug-In . SVG Version: 6.00 Build 0)  -->
<svg version="1.1" id="Camada_1" xmlns="http://www.w3.org/2000/svg" xmlns:xlink="http://www.w3.org/1999/xlink" x="0px" y="0px"
	 viewBox="0 0 811 197.8" style="enable-background:new 0 0 811 197.8;" xml:space="preserve">
<style type="text/css">
	.st0{fill:#106F31;}
	.st1{fill:#9EC972;}
	.st2{fill:#EF7E81;}
	.st3{fill:#F2979A;}
	.st4{fill:#F9CECF;}
</style>
<g id="Icone_1_">
	<ellipse class="st0" cx="115.2" cy="113.9" rx="114.6" ry="50.5"/>
	<path class="st1" d="M0.7,115.7c-0.4,0.1-1.3,12.5,5,23.5c3.7,6.5,8.9,10.6,13.9,13.9c21.4,13.8,50.8,18.6,64.1,20.3
		c29.6,3.8,51.8,1.6,60.3,0.6c6.4-0.7,22.8-2.9,42.5-9.7c10.8-3.7,19.3-7.6,27.7-14.2c5.4-4.2,10.6-8.4,13.9-15.8
		c4.3-9.8,2.6-19.1,1.6-23.2c0.1,1.3,0.1,3.2-0.2,5.4c0,0-0.9,6-4.6,11.9c-6.5,10.3-22.3,18-22.3,18c-18.4,9-34.5,12.3-38.5,13.1
		c-5.2,1-26.3,5-55.9,4.1c0,0-34-1-62.3-9.9c-5.3-1.7-10.6-3.8-16.1-6.6c-9.3-4.7-14.7-9.3-16.2-10.6c-4.1-3.6-7.8-6.8-10.3-12.4
		C0.9,119.5,0.9,115.7,0.7,115.7z"/>
	<path class="st1" d="M230.1,112.9c0.4-0.1,1.3-12.5-5-23.5c-3.7-6.5-8.9-10.6-13.9-13.9c-21.4-13.8-50.8-18.6-64.1-20.3
		c-29.6-3.8-51.8-1.6-60.3-0.6c-6.4,0.7-22.8,2.9-42.5,9.7C33.6,68,25.1,72,16.7,78.5c-5.4,4.2-10.6,8.4-13.9,15.8
		c-4.3,9.8-2.6,19.1-1.6,23.2c-0.1-1.3-0.1-3.2,0.2-5.4c0,0,0.9-6,4.6-11.9c6.5-10.3,22.3-18,22.3-18c18.4-9,34.5-12.3,38.5-13.1
		c5.2-1,26.3-5,55.9-4.1c0,0,34,1,62.3,9.9c5.3,1.7,10.6,3.8,16.1,6.6c9.3,4.7,14.7,9.3,16.2,10.6c4.1,3.6,7.8,6.8,10.3,12.4
		C229.9,109.2,229.9,113,230.1,112.9z"/>
	<path class="st2" d="M115.9,108.5c-4-2.6-24.5-16.6-28.9-42.7C82.7,41.1,94.6,15.3,117.2,0c1.5,1.2,31.8,25.4,27,62.6
		C140.6,90.4,119.7,105.8,115.9,108.5z"/>
	<path class="st3" d="M91,129.7c2.4,0.7,41.7,11.4,72.3-15.6c21.6-19.1,30.2-49.3,22.1-77.6c-10.4,1.6-35.4,7-58.3,27.4
		C99,89,92.6,120.2,91,129.7z"/>
	<path class="st4" d="M137.7,133.6c-2.4,0.6-42.3,9-71.2-19.8C46,93.6,39.1,62.9,48.9,35.2c10.3,2.2,34.9,9,56.6,30.7
		C132.1,92.5,136.7,124,137.7,133.6z"/>
	<path class="st3" d="M140.9,127.4c-1.8,1.7-31.2,29.6-71.1,20.3c-28.2-6.6-50.3-29.2-56.7-57.8c9.9-3.5,34.5-10.6,64.4-3.4
		C114.4,95.3,135,119.8,140.9,127.4z"/>
	<path class="st4" d="M94.9,136.9c1.9,1.5,34.1,26.3,72.8,13c27.4-9.4,47-34.1,50.4-63.3c-10.2-2.4-35.4-7-64.5,3.2
		C118,102.3,100,128.7,94.9,136.9z"/>
</g>
<g id="Tipografia_1_">
	<g>
		<path class="st0" d="M329.9,167.9h-2.1v-13.8l-6.4,13.8h-1.2l-6.4-13.8v13.8h-2.1v-18.4h2.1l7,15.1l7-15.1h2.1V167.9z"/>
		<path class="st0" d="M339.7,156.7c0.1-0.2,0.3-0.4,0.4-0.6c1.2-1.6,3-2.3,5.1-2.3c2.5,0,4.6,0.9,5.6,3.1c0.4,0.8,0.5,1.7,0.5,2.5
			v8.6h-1.8v-2.7c-0.5,1-1.5,1.8-2.4,2.3c-1.1,0.6-2.3,0.8-3.6,0.8c-1.4-0.1-2.8-0.8-3.6-1.8c-0.5-0.8-0.8-1.6-0.8-2.5
			c0-1.5,0.8-2.7,2-3.5c1.5-0.8,3-0.9,5.2-1.3l2.9-0.4c-0.1-0.9-0.5-1.6-1.2-2.1c-0.7-0.6-1.8-0.8-2.8-0.8c-1.3,0-2.5,0.4-3.2,1.4
			c-0.1,0.2-0.2,0.3-0.3,0.5L339.7,156.7z M345.9,161c-2.2,0.3-4.7,0.7-4.7,2.8c0,1.3,1.1,2.4,2.6,2.6c1.8,0.2,4.1-0.9,4.9-2.7
			c0.5-1.1,0.5-2,0.5-3.2C348.3,160.6,347.3,160.8,345.9,161z"/>
		<path class="st0" d="M373.3,161.1v6.8h-2.1v-6.8c0-2-0.2-3.6-1.5-4.6c-0.7-0.5-1.6-0.8-2.6-0.7c-0.8,0-1.7,0.3-2.3,0.8
			c-0.6,0.6-1,1.4-1.2,2.3c-0.1,0.6-0.2,1.2-0.2,1.9v7.1h-2.1v-13.8h1.9v1.6c0.1-0.2,0.3-0.3,0.4-0.5c1-0.9,2.4-1.4,3.6-1.4
			c1.4-0.1,2.8,0.3,3.9,1.2C373,156.4,373.4,158.6,373.3,161.1z"/>
		<path class="st0" d="M385.4,149.5v2.2h-2.1v-2.2H385.4z M385.4,154.1v13.8h-2.1v-13.8H385.4z"/>
		<path class="st0" d="M408.8,161c0,1.8-0.4,3.6-1.5,5.1c-1.2,1.5-2.9,2.2-4.8,2.2c-1.8,0-3.4-0.6-4.5-1.8v7.6h-2.1v-20h1.9v1.7
			c1.1-1.4,2.9-2.1,4.7-2.1c1.9,0,3.6,0.8,4.8,2.2C408.4,157.3,408.8,159.2,408.8,161z M406.6,161c0-1.4-0.3-2.8-1-3.8
			c-0.8-1.1-2-1.6-3.4-1.6c-1.3,0-2.5,0.5-3.3,1.5c-0.8,1-1.1,2.5-1.1,3.9c0,1.5,0.3,2.9,1.1,3.9c0.8,1,2,1.5,3.3,1.5
			c1.3,0,2.6-0.5,3.4-1.6C406.3,163.8,406.6,162.4,406.6,161z"/>
		<path class="st0" d="M429.8,154.1v13.8h-1.8v-1.6c-0.1,0.2-0.3,0.3-0.5,0.5c-1,0.9-2.4,1.4-3.6,1.4c-1.3,0.1-2.8-0.3-3.9-1.2
			c-1.9-1.5-2.2-3.7-2.2-6.2v-6.8h2.1v6.8c0,2,0.2,3.6,1.5,4.6c0.7,0.5,1.6,0.8,2.6,0.7c0.9,0,1.7-0.3,2.3-0.9
			c0.6-0.5,1.1-1.4,1.2-2.3c0.2-0.8,0.2-1.9,0.2-2.9v0v-6H429.8z"/>
		<path class="st0" d="M440,167.9v-18.8h2.1v18.8H440z"/>
		<path class="st0" d="M452.2,156.7c0.1-0.2,0.3-0.4,0.4-0.6c1.2-1.6,3-2.3,5.1-2.3c2.5,0,4.6,0.9,5.6,3.1c0.4,0.8,0.5,1.7,0.5,2.5
			v8.6h-1.8v-2.7c-0.5,1-1.5,1.8-2.4,2.3c-1.1,0.6-2.3,0.8-3.6,0.8c-1.4-0.1-2.8-0.8-3.6-1.8c-0.5-0.8-0.8-1.6-0.8-2.5
			c0-1.5,0.8-2.7,2-3.5c1.5-0.8,3-0.9,5.2-1.3l2.9-0.4c-0.1-0.9-0.5-1.6-1.2-2.1c-0.7-0.6-1.8-0.8-2.8-0.8c-1.3,0-2.5,0.4-3.2,1.4
			c-0.1,0.2-0.2,0.3-0.3,0.5L452.2,156.7z M458.4,161c-2.2,0.3-4.7,0.7-4.7,2.8c0,1.3,1.1,2.4,2.6,2.6c1.8,0.2,4.1-0.9,4.9-2.7
			c0.5-1.1,0.5-2,0.5-3.2C460.7,160.6,459.8,160.8,458.4,161z"/>
		<path class="st0" d="M483.4,164l2,0.9c-0.2,0.4-0.5,0.8-0.7,1.1c-1,1.2-2.4,2-4,2.2l-0.4,1.1c0.5,0.2,0.9,0.6,1.2,1.1
			c0.4,0.8,0.4,1.8-0.1,2.6c-0.5,0.7-1.4,1.2-2.3,1c-0.5-0.1-1-0.2-1.4-0.4l0.5-1.4c0.3,0.1,0.6,0.2,0.9,0.2c0.4,0,0.7-0.1,0.9-0.4
			c0.2-0.3,0.2-0.6,0.1-0.9c-0.2-0.5-0.8-0.7-1.6-0.9l0.7-1.9c-1.8-0.1-3.5-0.8-4.6-2.3c-1.2-1.4-1.5-3.2-1.6-5c0-1.8,0.4-3.6,1.6-5
			c1.3-1.6,3-2.3,5-2.3c2,0,3.8,0.7,5,2.3c0.3,0.4,0.5,0.8,0.7,1.2l-1.9,0.8c-0.1-0.3-0.3-0.5-0.5-0.8c-0.8-1-2-1.6-3.4-1.6
			c-1.3,0-2.6,0.5-3.3,1.6c-0.8,1-1,2.4-1,3.8c0,1.4,0.3,2.7,1,3.8c0.7,1,2,1.5,3.3,1.5c1.4,0,2.6-0.5,3.4-1.5
			C483.1,164.5,483.3,164.3,483.4,164z"/>
		<path class="st0" d="M494.5,156.7c0.1-0.2,0.3-0.4,0.4-0.6c1.2-1.6,3-2.3,5.1-2.3c2.5,0,4.6,0.9,5.6,3.1c0.4,0.8,0.5,1.7,0.5,2.5
			v8.6h-1.8v-2.7c-0.5,1-1.5,1.8-2.4,2.3c-1.1,0.6-2.3,0.8-3.6,0.8c-1.4-0.1-2.8-0.8-3.6-1.8c-0.5-0.8-0.8-1.6-0.8-2.5
			c0-1.5,0.8-2.7,2-3.5c1.5-0.8,3-0.9,5.2-1.3l2.9-0.4c-0.1-0.9-0.5-1.6-1.2-2.1c-0.7-0.6-1.8-0.8-2.8-0.8c-1.3,0-2.5,0.4-3.2,1.4
			c-0.1,0.2-0.2,0.3-0.3,0.5L494.5,156.7z M500.7,161c-2.2,0.3-4.7,0.7-4.7,2.8c0,1.3,1.1,2.4,2.6,2.6c1.8,0.2,4.1-0.9,4.9-2.7
			c0.5-1.1,0.5-2,0.5-3.2C503.1,160.6,502.1,160.8,500.7,161z M504.2,150.7c-0.3,0.5-0.8,0.8-1.4,0.9c-0.8,0.2-1.6-0.1-2.3-0.4
			c-0.8-0.4-1.4-0.7-1.9-0.6c-0.6,0-0.7,0.6-0.6,1h-1.4c-0.1-0.5-0.1-1.2,0.2-1.7c0.3-0.5,0.8-0.8,1.4-0.9c0.8-0.2,1.6,0.1,2.3,0.4
			c0.8,0.4,1.4,0.7,1.9,0.6c0.6-0.1,0.7-0.6,0.5-1h1.4C504.5,149.6,504.4,150.2,504.2,150.7z"/>
		<path class="st0" d="M516.9,166c-1.2-1.5-1.6-3.2-1.6-5.1c0-1.8,0.4-3.6,1.6-5c1.2-1.5,3-2.3,5-2.3c2,0,3.8,0.7,5,2.3
			c1.2,1.5,1.6,3.2,1.6,5c0,1.9-0.4,3.6-1.6,5.1c-1.2,1.5-3,2.3-5,2.3C520,168.3,518.1,167.5,516.9,166z M526.4,161
			c0-1.3-0.3-2.7-1-3.8c-0.8-1-2-1.5-3.4-1.5c-1.3,0-2.6,0.5-3.4,1.5c-0.8,1-1,2.4-1,3.8c0,1.4,0.3,2.8,1,3.8c0.7,1,2,1.6,3.4,1.6
			c1.3,0,2.6-0.5,3.4-1.6C526.1,163.7,526.4,162.3,526.4,161z"/>
	</g>
	<g>
		<path class="st0" d="M338.8,25.9c0.3,0,0.5,0,0.7,0.1c0.5,0.1,1,0.3,1.4,0.6c0.5,0.3,1,0.8,1.4,1.3c0.6,0.7,1,1.4,1.4,2.1
			c0.6,1.1,1.1,2.2,1.4,3.1c0.5,1.2,0.8,2.2,0.9,2.7c0.3,1-0.3,1.8-1.1,2.2c-0.7,0.4-1.6,0.2-1.9-0.6c-0.3-0.7-0.5-1.5-0.8-2.1
			c-0.4-0.9-0.8-1.7-1.2-2.4c-0.4-0.6-0.7-1.1-1-1.4c-0.3-0.3-0.5-0.5-0.7-0.6c-0.1-0.1-0.3-0.1-0.4-0.2c-0.1,0-0.3,0-0.5,0
			c-0.2,0-0.5,0.2-0.8,0.4c-0.4,0.2-0.8,0.5-1.2,0.9c-1.1,0.9-2.1,2.3-3.2,3.9c-1.3,1.9-2.5,4-3.7,6.3c-1.4,2.6-2.7,5.4-3.9,8.3
			c-1.4,3.2-2.7,6.4-3.9,9.8c-1,2.6-1.9,5.2-2.8,7.8l0,0c-1.7,4.8-3.2,9.6-4.7,14.5c-2.4,7.7-4.6,15.5-6.6,23.3
			c-1.9,7-3.6,14.1-5.2,21.2c-0.7,2.9-1.3,5.8-1.9,8.8c-0.5,2.3-0.9,4.7-1.4,7c-0.2,1.3-0.5,2.6-0.8,3.9c-0.2,1-0.5,2.1-0.8,3.2
			c-0.2,0.8-0.5,1.7-0.9,2.8c-0.2,0.7-0.7,1.6-1.5,2.7c-0.3,0.4-0.8,0.9-1.4,1.3c-0.6,0.4-1.3,0.7-2.1,0.8c-0.8,0.1-1.6-0.1-2.2-0.4
			c-0.7-0.4-1.3-0.8-1.6-1.2c-0.5-0.5-0.8-1-1-1.3c-0.3-0.5-0.5-0.9-0.7-1.3c-0.4-0.9-0.7-1.8-0.9-2.5c-0.3-0.9-0.5-1.8-0.7-2.6
			c-0.2-1-0.4-2-0.6-2.9c-0.4-2.3-0.7-4.6-1-6.8c-0.3-2.7-0.6-5.4-0.9-8.1c-0.3-3-0.6-6.1-0.8-9.1c-0.5-6.6-1-13.3-1.4-19.9
			c-0.4-6.6-0.8-13.1-1.2-19.7c-0.3-5.5-0.6-11.1-1-16.6c-0.1-2.1-0.3-4.1-0.4-6.1c-0.1-1.4-0.2-2.8-0.3-4.1c-0.3-3-0.8-5.8-1.4-8.4
			c-0.5-1.9-1-3.5-1.7-4.8c-0.5-0.8-0.9-1.5-1.3-1.6c-0.2-0.1-0.4-0.2-0.6-0.2c-0.3,0-0.7,0.3-1.3,0.7c-0.7,0.5-1.4,1.4-2.1,2.5
			c-1.8,2.8-3.1,6.6-4.1,10.7c-0.5,2.6-0.7,5.3-0.4,7.9c0.2,2.2,0.7,4.5,1.4,6.8c0.1,0.5,0.3,0.9,0.5,1.4c0.4,1.1,0.4,3.6,0.1,6.3
			c-0.1,1.4-0.3,2.9-0.6,4.2c-0.3,1.4-0.6,2.5-1,3.5c-0.4,0.9-0.8,1.5-1.2,1.7c-0.4,0.2-0.7,0.1-1-0.6c-0.6-1.4-1.1-2.7-1.7-4.3
			c-0.9-2.6-1.5-5.4-1.9-8.3c-0.4-3-0.6-6.4-0.4-9.8c0.1-3.2,0.5-6.8,1.3-10.6c0.7-2.9,1.7-6.8,3.1-10.5c0.3-0.9,0.8-2.1,1.4-3.4
			c0.7-1.4,1.7-3.1,3.2-4.6c1-1.1,2.3-2,4-2.5c1.4-0.3,3-0.2,4.5,0.7c1.6,1,3,2.4,4.1,4.1c1.4,2.2,2.5,4.7,3.3,7.2
			c1.1,3.4,1.9,6.9,2.5,10.3c0.3,1.6,0.5,3.2,0.6,4.6c0.3,2.2,0.5,4.4,0.7,6.3c0.2,1.9,0.3,3.5,0.4,5c0.3,4,0.6,7.9,0.8,11.6
			c0.4,6.7,0.8,13.1,1.2,19.6c0.4,6.2,0.8,13,1.2,19.6c0.2,2.9,0.4,5.9,0.7,8.9c0.1,1.7,0.3,3.5,0.5,5.3c0.1,0.8,0.1,1.6,0.2,2.4
			c0.1,1.3,0.2,2.7,0.3,4.2c0.6-2.4,1.2-4.5,1.9-7.1c0.6-2.2,1.2-4.5,1.8-6.8c0.2-0.7,0.3-1.3,0.5-2c1.4-5.8,3.3-13,5.7-21.3
			c2.1-7.4,4.5-15.3,7.3-23.4c2.5-7.6,5.2-15.1,8.2-22.5c1.4-3.4,2.8-6.7,4.3-9.9c1.4-3,2.8-5.8,4.3-8.5c1.4-2.5,2.8-4.7,4.2-6.7
			c1.3-1.8,2.6-3.3,4-4.5c0.6-0.5,1.2-1,1.8-1.3c0.6-0.3,1.1-0.5,1.7-0.6C338.2,26,338.5,25.9,338.8,25.9z M290.1,147.4
			c-0.2,0.2-0.3,0.3-0.4,0.4c-0.1,0.2,0,0.2,0.1,0C289.9,147.7,290,147.5,290.1,147.4z"/>
		<path class="st0" d="M330.8,92.6c0.7,0,1.5,0.2,2.3,0.4c2.3,0.8,4.4,2.6,4.2,4c-0.9,5.6-1.5,10.3-1.9,14.7
			c-0.4,4.7-0.6,8.2-0.5,11.5c0.1,1.3,0.2,2.4,0.4,3.3c0.2,0.8,0.3,1.3,0.4,1.6c0.1,0.2,0.2,0.4,0.2,0.5c0,0.1,0.3,0.2,0.6,0.3
			c1.2,0.2,2.7-0.7,4-1.6c2.1-1.6,3.9-3.9,5.4-6.2c1.9-2.9,3.6-6.5,5.4-11.6c1.4-3.9,2.8-8.7,4.3-15.1c0.3-1.2,2.3-1,2.1,0.1
			c-1.1,6.2-2.3,11.9-3.7,17.1c-1.3,4.6-2.8,9-4.8,13.1c-0.3,0.7-0.7,1.4-1.1,2.1c-1.3,2.3-2.7,4.5-4.5,6.6
			c-1.6,1.9-3.8,3.5-6.6,4.2c-1.1,0.2-2.3,0.1-3.7-0.5c-1.3-0.6-2.4-1.6-3.2-2.9c-0.9-1.4-1.6-2.9-2-4.4c-0.6-1.8-0.9-3.6-1.2-5.3
			c-0.6-4.5-0.7-9.1-0.5-13.8c0.2-5.1,0.7-10.3,1.6-16C328.3,93.2,329.4,92.6,330.8,92.6z M333,75.2c2.8,0,6.5,2.4,6.2,4.9
			c-2.1,10.1-10.4,6.4-9.4-2.2C330.1,76,331.4,75.2,333,75.2z"/>
		<path class="st0" d="M363.6,27.1c0.2,0,0.5,0,0.7,0c2.4,0.3,4.5,2,4.1,5.1c0,0-0.2,1.2-0.6,3.3c2.1-0.4,4.2-0.8,6.3-1.2
			c6.1-1,11.7-1.4,16.9-1.4c8.4,0.1,14.8,1.6,16.4,2.7c2.8,2,3.5,3.2,3.5,3.8c0,0.6-0.8,0.8-1,0.8c-7.7-1.1-14-1.4-18.9-1.2
			c-5.5,0.1-11,0.8-16.4,1.7c-2.9,0.5-5.3,0.9-7.9,1.5c-0.4,2.6-0.8,5.7-1.3,9.2c-0.9,7.4-1.7,16.4-2,26.5
			c-0.2,7.3-0.2,15.2,0.5,23.1c0.1,0.7,0.1,1.4,0.2,2.1c0.4,4.1,0.9,7.5,1.5,10.5c0.7,3.5,1.4,6.1,2.2,8.4c0.4,1.1,0.8,1.9,1.2,2.7
			c0.4,0.7,0.7,1.3,1.1,1.7c0.3,0.4,0.7,0.8,1.1,1c0.4,0.3,0.9,0.4,1.3,0.5c1.4,0.2,2.8-0.6,3.8-1.3c0.3-0.3,0.6-0.6,0.9-1
			c1-1.3,1.9-2.7,2.7-4c1.3-2.3,2.4-4.7,3.3-6.7c1.2-2.8,2.2-5.4,2.9-7.5c1.3-3.6,2.2-6.7,2.8-8.6c0.6-2.1,1-3.4,1.4-4.4
			c0.4-1.1,2.3-0.5,2,0.7c-1,4.5-2.2,9.1-3.6,13.7c-0.8,2.7-1.7,5.4-2.7,8c-0.9,2.5-2,5-3.2,7.5c-1,2.1-2.3,4.3-3.9,6.3
			c-1.2,1.6-2.9,3.2-5.2,4.1c-1,0.4-2.1,0.5-3.2,0.4c-1.2-0.2-2.3-0.6-3.2-1.2c-1.1-0.7-2.1-1.6-2.9-2.6c-1-1.2-1.8-2.5-2.5-3.8
			c-1.7-3.3-3-6.8-3.9-10.3c-1.1-4-1.9-8-2.4-12.1c-1.3-9.2-1.6-18.4-1.5-27.5c0.1-9.5,0.8-19,1.9-28.2c0.2-1.7,0.4-3.5,0.7-5.2
			c-4.4,0.8-10,1.8-15.9,2.5c-1.2,0.1-2.3-0.3-3.2-1.1c-1-0.9-1.8-2.3-2.1-3.9c-0.1-0.5-0.1-1-0.2-1.4c-0.1-1.4,0.3-2.7,0.9-3.6
			c1.1-1.8,2.6-2.2,3.7-2.2c1.1,0,1.6,0.5,1.3,1c0,0-1.1,1.6-1.4,3.1c-0.1,0.6-0.2,1.3-0.1,1.6c0.1,0.2,0.2,0.5,0.4,0.5
			c0.1,0.1,0.3,0.2,0.5,0.1c5-0.7,10.3-1.7,17.2-3.1c0.1-0.4,0.1-0.8,0.2-1.2c0.3-1.9,0.7-3.8,1.1-5.7
			C359.2,28.3,361.4,27.1,363.6,27.1z"/>
		<path class="st0" d="M407.9,68.3c0.4,0,0.8,0,1.2,0.1c1.1,0.2,2.1,0.6,3,1.2c1,0.6,1.8,1.3,2.5,2.1c1.6,1.8,2.8,3.8,3.7,5.8
			c1.1,2.4,1.8,4.8,2.4,7.1c1.2,5,1.6,10.1,1.5,15c1.4-0.2,2.7-0.5,3.9-0.8c3.3-0.9,6.1-2,7.8-2.8c1.9-0.8,3-1.4,3.5-1.7
			c1.5-0.8,2.2-0.6,2.4,0c0.2,0.5-0.1,1.4-0.6,1.7c-3.9,2.5-8.1,4.7-12.6,6.4c-1.5,0.6-3.1,1.1-4.7,1.5c-0.5,5.9-1.9,11.5-3.8,16.4
			c-0.9,2.3-2,4.6-3.3,6.6c-1.3,2.2-2.9,4.2-4.9,6c-1,0.8-2.1,1.6-3.2,2.1c-1.2,0.6-2.5,0.9-3.8,1c-1.4,0-2.8-0.2-4.1-0.7
			c-1.5-0.6-2.8-1.5-3.8-2.5c-1.6-1.4-2.9-3.2-4-5c-1.1-2-1.9-4.1-2.4-6c-0.6-2.2-1-4.4-1.2-6.3c-0.2-2.3-0.3-4.3-0.3-6.2
			c0-5.2,0.7-9.2,1-10.9c0.2-1,0.3-1.5,0.3-1.5l0,0c0.1-1,0.6-1.9,1.4-2.5c0.6-0.4,1.3-0.8,2.1-0.9c1.3-0.2,2.4,0.2,3.6,0.9
			c0.9,0.6,2.1,1.6,2.3,2.1c0.2,0.3,0.3,0.7,0.2,1.2c0,0.1,0,0.1,0,0.2c-0.2,0.9-0.3,1.8-0.5,2.8c-0.3,2.7-0.5,5.5-0.4,8.2
			c0,1.3,0.1,2.6,0.3,3.8c0,0.1,0,0.3,0.1,0.4c0.2,1.4,0.4,2.6,0.6,3.6c0.3,1.2,0.5,2.1,0.7,2.9c0.3,1,0.6,1.9,1.1,2.8
			c0.4,0.7,0.8,1.5,1.2,2c0.4,0.5,0.8,1,1.4,1.3c0.5,0.3,1.1,0.5,1.8,0.5c0.6,0,1.3-0.1,2.1-0.4c1.4-0.5,2.8-1.6,4.3-3.3
			c1.2-1.3,2.3-3,3.4-5c1.7-3.2,3.3-7.5,4.1-12.9c-0.8,0.1-1.6,0.2-2.4,0.2c-2.7,0.2-5.6-0.1-8.6-1.3c-2.2-0.8-4.4-2.4-6.5-4.8
			c-1.6-2-2.9-4.5-3.7-7.4c-0.7-2.7-0.9-5.5-0.6-8.2c0.2-2.6,0.9-5.1,2-7.5c1-2.2,2.5-4.2,4.4-5.7c0.9-0.7,1.9-1.2,3.1-1.5
			C406.5,68.3,407.2,68.3,407.9,68.3z M409.8,73.8c-0.4,0-0.9,0.1-1.3,0.2c-0.7,0.3-1.3,0.8-1.7,1.4c-0.5,0.6-0.8,1.3-1.1,2.1
			c-0.4,1.3-0.6,2.6-0.7,4c-0.1,1-0.1,2.2,0,3.3c0,0.4,0.1,0.8,0.1,1.2c0,0.6,0.1,1.2,0.2,1.8c0.2,1,0.6,2.2,1,3.2
			c0.6,1.6,1.8,3.2,2.8,4.4c2.1,2.5,4.4,4.3,6.1,4.4c0.2,0,0.3,0,0.5,0c1,0.1,2,0.1,2.9,0.1c0.2-4.2,0-9-1.1-14
			c-0.5-2-1.1-4.1-2.1-6.2c-0.7-1.6-1.7-3.2-2.9-4.6c-0.1-0.1-0.1-0.1-0.2-0.2c-0.5-0.5-1.1-0.9-1.7-1
			C410.4,73.8,410.1,73.8,409.8,73.8z"/>
		<path class="st0" d="M437.9,75c0.9,0,1.9,0.3,2.7,0.8c0.7,0.4,1.3,1,1.7,1.7c0.4,0.6,0.7,1.4,0.9,2.2c0.4,1.6,0.1,3.2-0.4,5
			c-0.4,1.4-0.9,2.8-1.4,4.3c1.7-0.3,3.6-1,5.9-1.6c0.7-0.3,1.8-0.4,3.2,0c0.6,0.2,1.2,0.5,1.8,1c0.6,0.5,1.1,1.1,1.4,1.7
			c0.8,1.4,1.2,2.7,1.3,3.7c0.2,1.2,0.3,2.3,0.2,3.1c0,2.2-0.3,4.2-0.5,5.8c-0.3,2.1-0.7,4.2-1.2,6.2c-0.5,2.2-0.9,4.3-1.4,6.4
			c-0.5,2.1-0.9,4.1-1.3,6.2c-0.4,1.8-0.7,3.6-0.9,5.3c-0.2,1.3-0.3,2.4-0.3,3.1c0.1,1.1,0.2,2.2,0.4,3.1c0.2,0.9,0.4,1.6,0.7,2
			c0.2,0.4,0.4,0.7,0.6,0.8c0.2,0.2,0.8,0.3,1.4,0.3c0.1,0,0.2,0,0.4-0.1c0.2-0.1,0.6-0.4,0.9-0.7c0.9-0.9,1.8-2.3,2.7-3.9
			c1.1-2,2-4.2,2.9-6.5c1-2.6,1.9-5.2,2.7-7.8c1.6-5.3,3-10.6,4.1-15.4c0.4-2,0.8-3.8,1.2-5.6c0.1-0.5,0.2-1,0.3-1.4
			c0-0.1,0-0.2,0.1-0.3c0.1-0.2,0.2-0.4,0.3-0.5c0.2-0.1,0.6-0.1,0.9-0.1c0.3,0,0.6,0,0.9,0.4c0.1,0.2,0.2,0.4,0.2,0.7
			c0,0.2,0,0.4,0,0.7c0,0.2-0.1,0.6-0.2,1.3c-0.2,1.4-0.5,3.2-1,5.8c-0.9,4.6-2,10.1-3.6,16.1c-0.8,2.9-1.6,5.7-2.4,8.4
			c-0.9,2.9-1.8,5.2-2.7,7.5c-1,2.3-1.8,3.8-2.6,5.2c-0.1,0.2-0.3,0.4-0.4,0.7c-0.4,0.6-1,1.4-1.8,2.1c-0.6,0.5-1.3,1-2.2,1.3
			c-1.2,0.4-2.7,0.5-4.4-0.1c-1.3-0.5-2.5-1.5-3.5-3c-0.9-1.3-1.7-2.9-2.2-4.5c-0.6-1.7-1-3.4-1.3-5.2c-0.2-2.1-0.2-4.1-0.1-5.9
			c0.1-2.2,0.3-4.3,0.6-6.3c0.3-2.3,0.6-4.5,1-6.6c0.4-2.2,0.8-4.3,1.1-6.3c0.4-2,0.7-3.6,1-5.3c0.1-0.4,0.1-0.8,0.2-1.2
			c0.2-1,0.3-1.6,0.3-2.1c0-0.1,0-0.1,0-0.1c-0.3-0.2-0.6-0.3-1.1-0.4c-0.6-0.1-1.3,0-2.5,0.3c-0.3,0.1-0.6,0.2-1,0.3
			c-0.9,0.3-1.9,0.7-3.1,0.8c-1,0.1-2.1-0.1-3.3-1c-1-0.6-2-1.6-2.9-3.1c-0.7-1.2-1.2-2.6-1.5-4.1c-0.4-2.6-0.3-4.9,0.1-6.9
			c0.2-1.2,0.6-2.4,1.1-3.6c0.7-1.6,1.9-2.9,3.3-3.6C436.1,75.2,437,75,437.9,75z M440,83.5C439.9,83.6,439.9,83.6,440,83.5
			c-0.3,0.1-0.5,0.8-0.7,1.6c-0.2,1.5-0.4,2.6-0.3,3c0,0.2,0,0.4,0.1,0.5c0,0,0,0,0,0c0,0,0,0,0,0c0.3-1,0.7-2.6,0.9-4.3
			C440,84,440,83.8,440,83.5z M440.2,83.4C440.2,83.4,440.2,83.4,440.2,83.4C440.2,83.4,440.3,83.4,440.2,83.4
			C440.3,83.4,440.2,83.4,440.2,83.4z"/>
		<path class="st0" d="M470.2,92.6c0.7,0,1.5,0.2,2.3,0.4c2.3,0.8,4.4,2.6,4.2,4c-0.9,5.6-1.5,10.3-1.9,14.7
			c-0.4,4.7-0.6,8.2-0.5,11.5c0.1,1.3,0.2,2.4,0.4,3.3c0.2,0.8,0.3,1.3,0.4,1.6c0.1,0.2,0.2,0.4,0.2,0.5c0,0.1,0.3,0.2,0.6,0.3
			c1.2,0.2,2.7-0.7,4-1.6c2.1-1.6,3.9-3.9,5.4-6.2c1.9-2.9,3.6-6.5,5.4-11.6c1.4-3.9,2.8-8.7,4.3-15.1c0.3-1.2,2.3-1,2.1,0.1
			c-1.1,6.2-2.3,11.9-3.7,17.1c-1.3,4.6-2.8,9-4.8,13.1c-0.3,0.7-0.7,1.4-1.1,2.1c-1.3,2.3-2.7,4.5-4.5,6.6
			c-1.6,1.9-3.8,3.5-6.6,4.2c-1.1,0.2-2.3,0.1-3.7-0.5c-1.3-0.6-2.4-1.6-3.2-2.9c-0.9-1.4-1.6-2.9-2-4.4c-0.6-1.8-0.9-3.6-1.2-5.3
			c-0.6-4.5-0.7-9.1-0.5-13.8c0.2-5.1,0.7-10.3,1.6-16C467.7,93.2,468.8,92.6,470.2,92.6z M472.5,75.2c2.8,0,6.5,2.4,6.2,4.9
			c-2.1,10.1-10.4,6.4-9.4-2.2C469.6,76,470.9,75.2,472.5,75.2z"/>
		<path class="st0" d="M521.4,86.3c0.6,0,1.4,0.2,2.3,0.6c1.3,1.1,2.1,2.1,2.2,3c0.3,1,0.4,1.7,0.4,2c0.1,1.1,0,1.7,0,1.9
			c-0.1,0.6-0.1,1.1-0.2,1.5c-0.7,3.7-1.3,7.3-1.7,11c-0.4,3.6-0.8,7.2-0.9,10.7c-0.1,3.1-0.1,6.1,0.1,9c0.1,1.2,0.3,2.3,0.5,3.3
			c0.2,0.9,0.4,1.6,0.6,2.1c0.3,0.6,0.5,1.1,0.7,1.2c0.1,0.1,0.3,0.2,0.3,0.2c0.1,0.1,0.4-0.1,0.8-0.2c0.6-0.3,1.3-1,2.1-1.9
			c1.1-1.2,2.1-2.8,3-4.5c1.3-2.3,2.5-4.9,3.6-7.6c3-7.2,5.3-15,7.4-23.1c0.7-3,2.5-1.6,2.2,0c-0.2,1.1-1,5.2-1.8,9.3
			c-0.9,4.4-2.3,10.2-4.2,16.4c-0.9,2.8-1.9,5.9-3.2,8.8c-0.9,2.1-2,4.2-3.3,6.2c-0.9,1.4-2.1,2.7-3.5,3.7c-0.6,0.4-1.2,0.8-1.9,1
			c-0.6,0.2-1.2,0.3-1.9,0.3c-1.3,0-2.5-0.5-3.6-1.4c-1.2-1-2.1-2.2-2.9-3.6c-0.7-1.3-1.3-2.7-1.7-4.1c-0.5-1.6-0.9-3.2-1.1-4.7
			c-0.7-3.6-1-7.3-1-11c-0.1-3.7,0.1-7.4,0.4-11.1c-0.5,1-0.9,1.9-1.4,2.9c-0.5,1.1-1.1,2.2-1.6,3.3c-0.7,1.4-1.3,3.1-2,5.1
			c-0.9,2.5-2,5.6-3.2,8.7c-1,2.4-2.1,4.9-3.7,7.3c-0.6,1-1.4,1.9-2.3,2.7c-0.8,0.7-1.7,1.4-2.8,1.8c-1.2,0.6-2.7,0.8-4.3,0.5
			c-1.5-0.3-2.8-1.1-4-2.3c-1.2-1.3-2.2-2.8-2.8-4.3c-0.8-1.8-1.3-3.6-1.6-5.3c0-0.2-0.1-0.5-0.1-0.7c-0.4-4-0.1-7.8,0.6-11.3
			c0.9-4.4,2.3-8.5,4.2-12.2c2.4-4.7,5.6-8.7,9.4-11.2c1.6-1,3.2-1.8,4.9-2.3c1.5-0.4,2.9-0.4,4.3-0.1c1.2,0.3,2.4,0.9,3.3,1.8
			c0.9,0.9,1.5,2.1,1.9,3.4c0.3,1.1,0.5,2.2,0.5,3.3c0.6-1.3,1.2-2.7,1.8-4.1c0.3-0.6,0.6-1.4,1-2.1c0.1-0.3,0.3-0.6,0.6-1
			c0.1-0.2,0.4-0.7,1.1-1.3c0.2-0.2,0.7-0.6,1.5-1C520.7,86.4,521,86.3,521.4,86.3z M509,94.1c-0.7,0-1.5,0.3-2.4,0.7
			c-1,0.5-2,1.3-3,2.2c-2.3,2.3-4.3,5.5-5.7,9.2c-1.1,3-2,6.2-2.5,9.4c-0.4,2.7-0.5,5.2-0.2,7.5c0.1,0.9,0.3,1.6,0.5,2.2
			c0.2,0.4,0.3,0.8,0.4,0.9c0.1,0.1,0.1,0.2,0.2,0.2c0.1,0.1,0.4,0,0.9,0c0.1,0,0.3-0.1,0.7-0.3c0.4-0.2,0.8-0.6,1.3-1.1
			c1.2-1.2,2.4-2.9,3.6-4.7c1.4-2.2,2.7-4.5,4-7c1.3-2.5,2.6-5.2,3.8-7.9c0.6-1.2,1.1-2.5,1.7-3.8c0-1.2,0-2.2-0.2-3.2
			c-0.2-1.3-0.4-2.3-0.8-2.9c-0.2-0.4-0.5-0.8-0.8-1C510.1,94.2,509.6,94.2,509,94.1z"/>
		<path class="st0" d="M598.8,24.6c0.4,0,0.8,0,1.2,0c2.6,0.2,5,0.9,6.7,1.7c1,0.5,1.8,1,2.4,1.5c1.4,1.1,2.6,2.3,3.7,3.4
			c4.8,5,8.1,10.5,10.2,14.3c1.6,2.9,2.9,5.8,4,8.5c1.1,2.8,2.1,5.8,2.9,9.3c0.6,2.7,1.2,5.9,1.5,9.7c0,0.3,0,0.5,0.1,0.8
			c0.2,2.7-0.1,5.8-0.8,8.9c-0.7,3-1.8,5.9-3.2,8.4c-1.5,2.6-3.2,4.7-5,6.3c-2.2,2-4.4,3.3-6.2,4.5c0,0-0.1,0-0.1,0.1
			c-2.3,1.6-3.8,2.4-4.9,3.2c-1.1,0.8-1.7,1.4-2.4,2.2c-0.4,0.6-0.9,1.6-1.3,2.5c-0.2,0.5-0.4,1.1-0.5,1.6c-0.1,0.4-0.2,0.9-0.2,1.4
			c-0.1,0.4-0.1,0.9-0.1,1.6c-0.1,1.1,0,2.4,0.2,4.5c0.2,1.7,0.5,3.6,1.1,5.9c0.3,1.3,0.7,2.7,1.2,4.2c0.2,0.6,0.4,1.4,0.7,2.3
			c0.5,1.8,1.2,4,2,6.3c0.7,1.7,1.4,3.5,2.3,5.1c0.4,0.6,0.7,1.2,1.1,1.8c0.3,0.4,0.6,0.8,0.8,1.1c0.3,0.4,0.7,0.7,1.2,0.8
			c0.5,0.2,1.1,0.2,1.7,0.1c0.7-0.1,1.5-0.5,2.4-1c1-0.6,1.9-1.3,2.8-2.2c2.6-2.4,4.8-5.4,6-7.2c0.7-1,1.2-1.8,1.4-2.3
			c1.4-2.8,2.7-5.5,3.8-7.9c1.6-3.6,3.1-7.2,4.5-10.9c1.1-3,2.3-6.3,3.6-10.1c0.8-2.3,1.6-4.9,2.4-7.8c0.1-0.5,0.3-1,0.4-1.5
			c0.1-0.4,0.3-0.7,0.4-1c0.2-0.3,0.4-0.5,0.6-0.6c0.4-0.2,0.7-0.2,1,0c0.3,0.2,0.6,0.4,0.7,0.9c0.1,0.3,0.1,0.6,0,0.9
			c0,0.2-0.1,0.3-0.1,0.5c0,0-0.3,0.9-0.6,2c-0.5,1.6-1.3,4.5-2.3,7.9c-0.9,3-2,6.5-3.3,10.4c-1.2,3.6-2.6,7.5-4.2,11.5
			c-1.4,3.6-3.1,7.4-4.9,11.1c-1.6,3.2-3.4,6.4-5.6,9.3c-0.9,1.3-2,2.5-3.2,3.6c-1,1-2.2,1.9-3.5,2.6c-1.2,0.6-2.6,1-4,1.1
			c-1.5,0-2.9-0.3-4.2-1c-0.9-0.5-1.8-1.2-2.5-1.9c-0.8-0.8-1.5-1.6-2.2-2.4c-1.6-2-2.8-4.1-3.9-6.2c-1.3-2.5-2.4-5.1-3.3-7.6
			c-1.1-3-1.8-5.8-2.4-8.3c-0.8-3.4-1.1-6.3-1.2-8.6c-0.2-2.7,0-4.3,0-4.3l0,0c0.1-1.4,0.3-2.8,0.5-4.3c0.3-1.3,0.7-2.7,1.2-4
			c0.5-1.3,1.2-2.5,2-3.6c0.8-1.1,1.8-2,2.8-2.8c1.1-0.8,2.3-1.3,3.4-1.7c2.3-0.7,4.5-1.7,6.4-3.1c1.6-1.2,3.1-2.5,4.2-4.2
			c1.1-1.5,1.9-3.2,2.6-5c0.6-1.8,1-3.8,1.2-5.9c0.2-2.2,0.2-4.5,0-6.8c-0.2-2.4-0.6-4.9-1.2-7.3c-1.2-5.1-3.1-10.1-5.4-14.6
			c-2.3-4.5-5.1-8.5-8.2-11.8c-1.5-1.5-3-2.8-4.6-3.9c-1.5-1-3-1.8-4.5-2.2c-1.4-0.4-2.8-0.6-4.1-0.4c-1.3,0.1-2.6,0.6-3.8,1.4
			c-1.3,0.8-2.6,2.1-3.7,3.5c-1.4,1.8-2.6,4-3.7,6.5c-0.6,1.5-1.1,3.4-1.5,5.4c-0.5,2.4-0.8,4.9-1,7.6c-0.3,3-0.4,6.1-0.4,9.2
			c0,3.4,0,6.8,0.2,10.3c0.3,7.3,0.9,14.7,1.8,22.1c0.8,7.1,1.8,14.3,3.1,21.4c0.2,1.4,0.5,2.8,0.8,4.2l0,0c0.5-9.5,1-19,1.4-28.4
			c0.6-10.7,1.1-21.3,1.6-31.9c0.4-8.7,0.9-17.4,1.2-26.1c0.1-3,9-1.8,9,2.8c-0.3,8.4-0.7,16.9-1,24.1c-0.5,10-0.9,19.1-1.5,32
			c-0.3,6.8-0.9,18.6-1.3,28.4c-0.1,3.3-0.3,6.9-0.4,10.5c0,0.6,0,1.2-0.1,1.9c0,0.6-0.1,1.3-0.1,2.1c0,0.8-0.1,2-0.1,2.8
			c-0.1,1.3-0.2,2.8-0.3,4.3c-0.1,1.1-0.2,2.3-0.4,3.5c-0.1,0.8-0.3,1.8-0.6,2.8c-0.2,0.6-0.5,1.5-1,2.5c-0.2,0.4-0.5,0.8-0.9,1.2
			c-0.3,0.4-0.8,0.7-1.3,0.9c-0.5,0.2-1,0.2-1.5,0.1c-0.5-0.1-0.9-0.3-1.3-0.6c-0.4-0.3-0.7-0.6-0.9-0.8c-0.3-0.3-0.5-0.6-0.7-0.9
			c-0.4-0.7-0.8-1.4-1-2.1c-0.3-0.8-0.6-1.7-0.9-2.5c-0.3-1-0.6-1.9-0.8-2.9c-0.6-2.4-1.1-4.8-1.5-7.2c-0.5-2.9-1-5.8-1.4-8.8
			c-0.5-3.4-0.9-6.8-1.2-10c-1-9-1.5-16.4-2-22.3c-0.1-1.9-0.3-3.6-0.4-4.9c-0.6-5.9-1-11.9-1.3-17.9c-0.1-3.6-0.2-7.2-0.2-10.7
			c0-3.3,0.2-6.6,0.5-9.8c0.3-2.9,0.6-5.8,1.2-8.6c0.5-2.4,1.1-4.7,2-6.9c1-2.3,2.1-4.4,3.4-6.4c0.4-0.5,0.7-1.1,1.1-1.6
			c1.4-2,3-3.9,4.9-5.5c1.7-1.4,3.6-2.6,5.6-3.2C595.3,24.8,597.1,24.6,598.8,24.6z M591.8,149C591.9,149.1,591.9,149.1,591.8,149
			C591.9,149.1,591.8,149.1,591.8,149z"/>
		<path class="st0" d="M658.4,83.6c0.9,0,1.9,0.1,2.9,0.5c1.5,0.6,2.9,1.8,4,3.4c1.2,2,1.9,3.9,2.1,5.6c0.3,1.6,0.2,3.2-0.1,4.7
			c-0.4,1.5-0.8,2.7-1.3,3.4c-1.2,1.8-2.3,2.9-3,3.4c-1.1,0.8-2.1,1.4-3,1.9c-1.1,0.5-2.1,1-3.1,1.3c-1.4,0.5-2.9,0.9-4.3,1.1
			c-0.1,0.7-0.2,1.4-0.2,2.1c-0.2,2.3-0.2,4.5,0.1,6.6c0.3,1.8,0.7,3.6,1.4,4.8c0.3,0.6,0.7,1.1,1.1,1.5c0.4,0.4,1,0.8,1.7,1.1
			c1.2,0.5,2.6,0.7,4.1,0.4c1.7-0.3,3.6-1.4,5.7-3.1c2.5-2.2,4.8-5.4,7.1-9.8c2.6-4.8,4.9-10.6,7-17.7c1-2.2,2.3-0.5,2.2,0.7
			c-2.2,7.9-4.3,14.1-6.7,19.6c-2.3,5.1-4.5,9-7.1,12.2c-2.2,2.7-4.6,4.7-7.2,5.9c-2.2,1-4.5,1.4-6.7,1.1c-1.4-0.1-2.8-0.6-4.1-1.3
			c-1.3-0.7-2.4-1.7-3.5-3c-2-2.5-3.6-5.7-4.5-9.3c-0.4-1.7-0.7-3.5-0.9-5.4c-0.2-1.7-0.3-3.8-0.2-6c0.1-3.4,0.7-7.3,2.1-11.4
			c1-2.8,2.4-5.5,4.2-7.8c1.5-2,3.4-3.8,5.6-5.2c1-0.6,2.1-1,3.4-1.3C657.6,83.6,658,83.6,658.4,83.6z M659.9,92
			c-0.2,0-0.4,0-0.6,0.1c-0.5,0.2-1,0.6-1.4,1.1c-0.5,0.5-0.8,1.2-1.2,1.8c-0.8,1.4-1.4,3-2.1,4.8c-0.5,1.4-1.1,3.1-1.4,4.7
			c-0.1,0.3-0.1,0.6-0.2,0.9c0,0.1-0.1,0.2-0.1,0.3c1.2-0.4,2.2-0.9,3.1-1.4c1-0.6,1.9-1.2,2.7-1.9c0.8-0.7,1.6-1.4,2.2-2.3
			c0.6-0.7,1.1-1.6,1.5-2.6c0.2-0.4,0.3-1,0.3-1.6c0-0.6,0-1.1-0.2-1.6c-0.4-1-1.1-1.7-1.7-2.1C660.7,92.1,660.3,92,659.9,92z"/>
		<path class="st0" d="M713.8,81c1,0,2,0.3,2.9,1.1c1.1,1.5,1.8,2.9,2.1,4.1c0.1,8.2,0.1,16.4,0,24.6c2.4-2.6,4.8-5.1,7.1-7.6
			c2-2.2,4.1-4.3,6-6.4c0.7-0.8,1.4-1.6,2-2.3c0,0,0,0,0,0c0.4-0.4,0.7-0.6,1.1-0.7c0.4,0,0.7,0.1,1,0.3c0.3,0.2,0.5,0.5,0.5,1
			c0,0.5-0.2,1-0.7,1.7c0,0.1-0.1,0.1-0.1,0.2c-0.6,0.7-1.2,1.5-2.1,2.6c-1.7,2.1-3.3,3.9-5.9,6.8c-2,2.3-4.9,5.6-7.5,8.5
			c-0.5,0.6-1.1,1.2-1.6,1.8c-0.1,5.1-0.4,10.2-0.7,15.3c-0.7,10.3-1.8,20.8-3.7,31.1c-1.2,6.7-2.9,13.7-5.6,20.3
			c-0.9,2.3-2.1,4.6-3.4,6.8c-1.1,1.7-2.4,3.3-4,4.7c-1.3,1.1-2.8,2-4.5,2.6c-1.5,0.4-3.1,0.5-4.7,0.1c-1.5-0.4-2.9-1.2-4.1-2.2
			c-1.3-1.1-2.3-2.4-3.2-3.8c-1.9-3.1-3.1-6.6-3.6-10.2c-0.6-4-0.5-8.2,0.3-12.2c1.1-4.8,2.7-9.2,4.5-13.1c2-4.4,4.3-8.5,6.7-12.4
			c2.6-4.1,5.3-8,8.1-11.7c2.4-3.2,4.9-6.3,7.4-9.3c0.4-7.8,0.7-16.3,0.8-26c-0.3,1.3-0.6,2.6-1,4c-0.7,2.7-1.5,5.8-2.4,9
			c-0.9,2.9-1.9,6-3.2,9.1c-1.1,2.7-2.5,5.5-4.2,8c-1.5,2.2-3.3,4.3-5.7,5.7c-1.1,0.7-2.3,1.1-3.6,1.3c-1.4,0.2-2.8,0.1-4.1-0.2
			c-2.1-0.7-4.2-2.1-5.9-4.3c-1.6-2.2-2.8-4.7-3.5-7.3c-0.6-2.2-1-4.4-1.2-6.5c0-0.8,0-1.5,0.1-2.3c0.2-3.2,0.8-6.3,1.6-9
			c1.8-6.1,4.8-11.3,8.5-15c1.9-1.9,3.9-3.5,6.1-4.7c2.1-1.1,4.4-1.8,6.7-2c1.4-0.1,2.8,0,4.1,0.5c1.2,0.5,2.4,1.4,3.3,2.5
			c1,1.3,1.8,2.9,2.3,4.8c0,0.1,0.1,0.2,0.1,0.3c0.3-0.8,0.6-1.7,0.9-2.5c0.3-0.7,0.5-1.5,0.9-2.4c0.1-0.3,0.3-0.7,0.5-1.2
			c0.1-0.3,0.4-0.8,0.9-1.5c0.2-0.3,0.5-0.6,1-1.1c0.3-0.4,1.1-0.8,2.3-1C713.5,81,713.7,81,713.8,81z M700.2,89.2
			c-0.5,0-1.1,0.1-1.7,0.3c-0.8,0.3-1.5,0.6-2.2,1c-0.8,0.4-1.5,1-2.3,1.6c-1.4,1.1-2.6,2.6-3.8,4.3c-2.2,3.3-3.9,7.3-4.9,11.6
			c-0.4,2-0.7,3.9-0.8,5.8c0,1.7,0,3.3,0.3,4.6c0.3,1.2,0.6,2.2,1,2.8c0.3,0.6,0.8,1.1,1.4,1.3c0.5,0.2,0.9,0.2,1.3,0.2
			c0.4,0,0.9-0.1,1.4-0.3c1.1-0.4,2.2-1.4,3.5-2.8c1.4-1.5,2.6-3.5,3.9-5.7c1.3-2.3,2.5-4.9,3.7-7.6c1.1-2.6,2.1-5.3,3.1-8
			c0.3-0.7,0.5-1.4,0.8-2.2c0-0.1,0-0.2-0.1-0.2l0,0c-0.3-1.2-0.6-2.4-1-3.3c-0.5-1.2-1.1-2.1-1.7-2.6c-0.4-0.4-1-0.7-1.6-0.8
			C700.5,89.2,700.4,89.2,700.2,89.2z M707.7,129.9c-1.4,1.8-2.8,3.7-4.3,5.7c-1.7,2.4-3.5,4.9-5.2,7.6c-0.9,1.4-1.7,2.7-2.5,4
			c-2.5,4.2-4.4,8.2-5.9,12c-1.7,4.2-2.7,8.1-3.3,11.9c-0.4,3.1-0.1,6,0.5,8.5c0.6,2.5,1.6,4.6,2.9,6.1c0.6,0.7,1.2,1.2,1.8,1.6
			c0.6,0.3,1.2,0.5,1.7,0.5c0.5,0,1.1-0.1,1.6-0.4c0.6-0.3,1.1-0.8,1.7-1.5c0.7-0.8,1.3-1.8,2-3c0.8-1.5,1.4-3.1,2.1-5.1
			c1.6-4.8,2.8-10.2,3.9-17.7c1.3-8.2,2.2-17.3,2.9-29.2C707.7,130.5,707.7,130.2,707.7,129.9z"/>
		<path class="st0" d="M736.2,92.6c0.7,0,1.5,0.2,2.3,0.4c2.3,0.8,4.4,2.6,4.2,4c-0.9,5.6-1.5,10.3-1.9,14.7
			c-0.4,4.7-0.6,8.2-0.5,11.5c0.1,1.3,0.2,2.4,0.4,3.3c0.2,0.8,0.3,1.3,0.4,1.6c0.1,0.2,0.2,0.4,0.2,0.5c0,0.1,0.3,0.2,0.6,0.3
			c1.2,0.2,2.7-0.7,4-1.6c2.1-1.6,3.9-3.9,5.4-6.2c1.9-2.9,3.6-6.5,5.4-11.6c1.4-3.9,2.8-8.7,4.3-15.1c0.3-1.2,2.3-1,2.1,0.1
			c-1.1,6.2-2.3,11.9-3.7,17.1c-1.3,4.6-2.8,9-4.8,13.1c-0.3,0.7-0.7,1.4-1.1,2.1c-1.3,2.3-2.7,4.5-4.5,6.6
			c-1.6,1.9-3.8,3.5-6.6,4.2c-1.1,0.2-2.3,0.1-3.7-0.5c-1.3-0.6-2.4-1.6-3.2-2.9c-0.9-1.4-1.6-2.9-2-4.4c-0.6-1.8-0.9-3.6-1.2-5.3
			c-0.6-4.5-0.7-9.1-0.5-13.8c0.2-5.1,0.7-10.3,1.6-16C733.6,93.2,734.8,92.6,736.2,92.6z M738.4,75.2c2.8,0,6.5,2.4,6.2,4.9
			c-2.1,10.1-10.4,6.4-9.4-2.2C735.5,76,736.8,75.2,738.4,75.2z"/>
		<path class="st0" d="M787.4,86.3c0.6,0,1.4,0.2,2.3,0.6c1.3,1.1,2.1,2.1,2.2,3c0.3,1,0.4,1.7,0.4,2c0.1,1.1,0,1.7,0,1.9
			c-0.1,0.6-0.1,1.1-0.2,1.5c-0.7,3.7-1.3,7.3-1.7,11c-0.4,3.6-0.8,7.2-0.9,10.7c-0.1,3.1-0.1,6.1,0.1,9c0.1,1.2,0.3,2.3,0.5,3.3
			c0.2,0.9,0.4,1.6,0.6,2.1c0.3,0.6,0.5,1.1,0.7,1.2c0.1,0.1,0.3,0.2,0.3,0.2c0.1,0.1,0.4-0.1,0.8-0.2c0.6-0.3,1.3-1,2.1-1.9
			c1.1-1.2,2.1-2.8,3-4.5c1.3-2.3,2.5-4.9,3.6-7.6c3-7.2,5.3-15,7.4-23.1c0.7-3,2.5-1.6,2.2,0c-0.2,1.1-1,5.2-1.8,9.3
			c-0.9,4.4-2.3,10.2-4.2,16.4c-0.9,2.8-1.9,5.9-3.2,8.8c-0.9,2.1-2,4.2-3.3,6.2c-0.9,1.4-2.1,2.7-3.5,3.7c-0.6,0.4-1.2,0.8-1.9,1
			c-0.6,0.2-1.2,0.3-1.9,0.3c-1.3,0-2.6-0.5-3.7-1.4c-1.2-1-2.1-2.2-2.9-3.6c-0.7-1.3-1.3-2.7-1.7-4.1c-0.5-1.6-0.9-3.2-1.1-4.7
			c-0.7-3.6-1-7.3-1-11c-0.1-3.7,0.1-7.4,0.4-11.1c-0.5,1-0.9,1.9-1.4,2.9c-0.5,1.1-1.1,2.2-1.6,3.3c-0.6,1.4-1.3,3.1-2,5.1
			c-0.9,2.5-2,5.6-3.2,8.7c-1,2.4-2.1,4.9-3.7,7.3c-0.6,1-1.4,1.9-2.3,2.7c-0.8,0.7-1.7,1.4-2.8,1.8c-1.2,0.6-2.7,0.8-4.3,0.5
			c-1.5-0.3-2.8-1.1-4-2.3c-1.2-1.3-2.2-2.8-2.8-4.3c-0.8-1.8-1.3-3.6-1.6-5.3c0-0.2-0.1-0.5-0.1-0.7c-0.4-4-0.1-7.8,0.6-11.3
			c0.9-4.4,2.3-8.5,4.2-12.2c2.4-4.7,5.6-8.7,9.4-11.2c1.6-1,3.2-1.8,4.9-2.3c1.5-0.4,2.9-0.4,4.3-0.1c1.2,0.3,2.4,0.9,3.3,1.8
			c0.9,0.9,1.5,2.1,1.9,3.4c0.3,1.1,0.5,2.2,0.5,3.3c0.6-1.3,1.2-2.7,1.8-4.1c0.3-0.6,0.6-1.4,1-2.1c0.1-0.3,0.3-0.6,0.6-1
			c0.1-0.2,0.4-0.7,1.1-1.3c0.2-0.2,0.7-0.6,1.5-1C786.7,86.4,787,86.3,787.4,86.3z M774.9,94.1c-0.7,0-1.5,0.3-2.4,0.7
			c-1,0.5-2,1.3-3,2.2c-2.3,2.3-4.3,5.5-5.7,9.2c-1.1,3-2,6.2-2.5,9.4c-0.4,2.7-0.5,5.2-0.2,7.5c0.1,0.9,0.3,1.6,0.5,2.2
			c0.2,0.4,0.3,0.8,0.4,0.9c0.1,0.1,0.1,0.2,0.2,0.2c0.1,0.1,0.4,0,0.9,0c0.1,0,0.3-0.1,0.7-0.3c0.4-0.2,0.8-0.6,1.3-1.1
			c1.2-1.2,2.4-2.9,3.6-4.7c1.4-2.2,2.7-4.5,4-7c1.3-2.5,2.6-5.2,3.8-7.9c0.6-1.2,1.1-2.5,1.7-3.8c0-1.2,0-2.2-0.2-3.2
			c-0.2-1.3-0.4-2.3-0.8-2.9c-0.2-0.4-0.5-0.8-0.8-1C776.1,94.2,775.5,94.2,774.9,94.1z"/>
	</g>
	<path class="st0" d="M427.1,52.1c0.1,0,0.3,0.2,0.6,0.4c0.4,0.4,0.6,0.9,0.7,1.2c0,0.8-0.2,2.1-0.6,3.5c-0.6,1.8-1.3,2.9-2.5,4.6
		c-1,1.4-1.9,2.5-2.9,3.3c-0.6,0.5-1.5,1-2.6,0.9c-0.1,0-1.2-0.2-1.8-1c-0.5-0.8-0.5-1.8-0.5-1.7c-0.1,0,2.4-2.5,3.4-4
		c1.2-2,1.8-3,2.1-3.7c0,0,0.5-1.1,1.3-2.3c0.6-0.9,0.9-1.2,1.3-1.3C426.2,51.7,426.9,52,427.1,52.1z"/>
	<path class="st0" d="M668.2,60.2c0.1,0,0.3,0.2,0.6,0.4c0.4,0.4,0.6,0.9,0.7,1.2c0,0.8-0.2,2.1-0.6,3.5c-0.6,1.8-1.3,2.9-2.5,4.6
		c-1,1.4-1.9,2.5-2.9,3.3c-0.6,0.5-1.5,1-2.6,0.9c-0.1,0-1.2-0.2-1.8-1c-0.5-0.8-0.5-1.8-0.5-1.7c-0.1,0,2.4-2.5,3.4-4
		c1.2-2,1.8-3,2.1-3.7c0,0,0.5-1.1,1.3-2.3c0.6-0.9,0.9-1.2,1.3-1.3C667.3,59.8,668,60.1,668.2,60.2z"/>
</g>
</svg>
